<svg width="29" height="40" viewBox="0 0 29 40" fill="none" xmlns="http://www.w3.org/2000/svg">
<path d="M0 4C0 1.79086 1.7908 0 4 0H24.9995C27.2095 0 28.9995 1.79086 28.9995 4V36C28.9995 38.2091 27.2095 40 24.9995 40H4C1.7908 40 0 38.2091 0 36V4Z" fill="url(#paint0_linear_126_761)"/>
<path d="M7.532 27.56C6.4495 27.56 5.4452 27.3867 4.5192 27.04C3.6062 26.68 2.8106 26.1733 2.1324 25.52C1.4672 24.8667 0.945499 24.1 0.567299 23.22C0.189099 22.3267 0 21.3467 0 20.28C0 19.2133 0.189099 18.24 0.567299 17.36C0.945499 16.4667 1.4672 15.6933 2.1324 15.04C2.8106 14.3867 3.6062 13.8867 4.5192 13.54C5.4452 13.18 6.4495 13 7.532 13C8.7972 13 9.9253 13.2267 10.9165 13.68C11.9205 14.1333 12.7555 14.7867 13.4205 15.64L10.9555 17.92C10.5125 17.3867 10.0232 16.98 9.4884 16.7C8.9667 16.42 8.3798 16.28 7.7277 16.28C7.1668 16.28 6.6517 16.3733 6.1821 16.56C5.7126 16.7467 5.3083 17.02 4.9692 17.38C4.6431 17.7267 4.3823 18.1467 4.1866 18.64C4.004 19.1333 3.9127 19.68 3.9127 20.28C3.9127 20.88 4.004 21.4267 4.1866 21.92C4.3823 22.4133 4.6431 22.84 4.9692 23.2C5.3083 23.5467 5.7126 23.8133 6.1821 24C6.6517 24.1867 7.1668 24.28 7.7277 24.28C8.3798 24.28 8.9667 24.14 9.4884 23.86C10.0232 23.58 10.5125 23.1733 10.9555 22.64L13.4205 24.92C12.7555 25.76 11.9205 26.4133 10.9165 26.88C9.9253 27.3333 8.7972 27.56 7.532 27.56Z" fill="white"/>
<path d="M19.3153 27.28L13.4663 13.28H17.6523L22.5833 25.4H20.1173L25.1653 13.28H28.9993L23.1303 27.28H19.3153Z" fill="white"/>
<defs>
<linearGradient id="paint0_linear_126_761" x1="-6.2675" y1="-8" x2="35.0935" y2="45.8385" gradientUnits="userSpaceOnUse">
<stop stop-color="#2802BD"/>
<stop offset="1" stop-color="#5142FF"/>
</linearGradient>
</defs>
</svg>
