<svg width="119" height="40" viewBox="0 0 119 40" fill="none" xmlns="http://www.w3.org/2000/svg">
<g clip-path="url(#clip0_57_1247)">
<path d="M0 28V11.2H6.912C8.4 11.2 9.672 11.44 10.728 11.92C11.8 12.4 12.624 13.088 13.2 13.984C13.776 14.88 14.064 15.944 14.064 17.176C14.064 18.408 13.776 19.472 13.2 20.368C12.624 21.264 11.8 21.952 10.728 22.432C9.672 22.912 8.4 23.152 6.912 23.152H1.728L3.12 21.688V28H0ZM3.12 22.024L1.728 20.512H6.768C8.144 20.512 9.176 20.224 9.864 19.648C10.568 19.056 10.92 18.232 10.92 17.176C10.92 16.104 10.568 15.28 9.864 14.704C9.176 14.128 8.144 13.84 6.768 13.84H1.728L3.12 12.304V22.024Z" fill="url(#paint0_linear_57_1247)"/>
<path d="M22.8688 28.168C21.4448 28.168 20.1968 27.888 19.1248 27.328C18.0688 26.752 17.2448 25.968 16.6528 24.976C16.0768 23.984 15.7888 22.856 15.7888 21.592C15.7888 20.312 16.0688 19.184 16.6288 18.208C17.2048 17.216 17.9888 16.44 18.9808 15.88C19.9888 15.32 21.1328 15.04 22.4128 15.04C23.6608 15.04 24.7728 15.312 25.7488 15.856C26.7248 16.4 27.4928 17.168 28.0528 18.16C28.6128 19.152 28.8928 20.32 28.8928 21.664C28.8928 21.792 28.8848 21.936 28.8688 22.096C28.8688 22.256 28.8608 22.408 28.8448 22.552H18.1648V20.56H27.2608L26.0848 21.184C26.1008 20.448 25.9488 19.8 25.6288 19.24C25.3088 18.68 24.8688 18.24 24.3088 17.92C23.7648 17.6 23.1328 17.44 22.4128 17.44C21.6768 17.44 21.0288 17.6 20.4688 17.92C19.9248 18.24 19.4928 18.688 19.1728 19.264C18.8688 19.824 18.7168 20.488 18.7168 21.256V21.736C18.7168 22.504 18.8928 23.184 19.2448 23.776C19.5968 24.368 20.0928 24.824 20.7328 25.144C21.3728 25.464 22.1088 25.624 22.9408 25.624C23.6608 25.624 24.3088 25.512 24.8848 25.288C25.4608 25.064 25.9728 24.712 26.4208 24.232L28.0288 26.08C27.4528 26.752 26.7248 27.272 25.8448 27.64C24.9808 27.992 23.9888 28.168 22.8688 28.168Z" fill="url(#paint1_linear_57_1247)"/>
<path d="M31.7744 28V15.184H34.6304V18.712L34.2944 17.68C34.6784 16.816 35.2784 16.16 36.0944 15.712C36.9264 15.264 37.9584 15.04 39.1904 15.04V17.896C39.0624 17.864 38.9424 17.848 38.8304 17.848C38.7184 17.832 38.6064 17.824 38.4944 17.824C37.3584 17.824 36.4544 18.16 35.7824 18.832C35.1104 19.488 34.7744 20.472 34.7744 21.784V28H31.7744Z" fill="url(#paint2_linear_57_1247)"/>
<path d="M42.2607 28V14.464C42.2607 13.12 42.6527 12.048 43.4367 11.248C44.2367 10.432 45.3727 10.024 46.8447 10.024C47.3727 10.024 47.8687 10.08 48.3327 10.192C48.8127 10.304 49.2127 10.48 49.5327 10.72L48.7167 12.976C48.4927 12.8 48.2367 12.672 47.9487 12.592C47.6607 12.496 47.3647 12.448 47.0607 12.448C46.4367 12.448 45.9647 12.624 45.6447 12.976C45.3247 13.312 45.1647 13.824 45.1647 14.512V15.952L45.2607 17.296V28H42.2607ZM40.1487 17.68V15.28H48.6927V17.68H40.1487Z" fill="url(#paint3_linear_57_1247)"/>
<path d="M56.5485 28.168C55.1245 28.168 53.8765 27.888 52.8045 27.328C51.7485 26.752 50.9245 25.968 50.3325 24.976C49.7565 23.984 49.4685 22.856 49.4685 21.592C49.4685 20.312 49.7485 19.184 50.3085 18.208C50.8845 17.216 51.6685 16.44 52.6605 15.88C53.6685 15.32 54.8125 15.04 56.0925 15.04C57.3405 15.04 58.4525 15.312 59.4285 15.856C60.4045 16.4 61.1725 17.168 61.7325 18.16C62.2925 19.152 62.5725 20.32 62.5725 21.664C62.5725 21.792 62.5645 21.936 62.5485 22.096C62.5485 22.256 62.5405 22.408 62.5245 22.552H51.8445V20.56H60.9405L59.7645 21.184C59.7805 20.448 59.6285 19.8 59.3085 19.24C58.9885 18.68 58.5485 18.24 57.9885 17.92C57.4445 17.6 56.8125 17.44 56.0925 17.44C55.3565 17.44 54.7085 17.6 54.1485 17.92C53.6045 18.24 53.1725 18.688 52.8525 19.264C52.5485 19.824 52.3965 20.488 52.3965 21.256V21.736C52.3965 22.504 52.5725 23.184 52.9245 23.776C53.2765 24.368 53.7725 24.824 54.4125 25.144C55.0525 25.464 55.7885 25.624 56.6205 25.624C57.3405 25.624 57.9885 25.512 58.5645 25.288C59.1405 25.064 59.6525 24.712 60.1005 24.232L61.7085 26.08C61.1325 26.752 60.4045 27.272 59.5245 27.64C58.6605 27.992 57.6685 28.168 56.5485 28.168Z" fill="url(#paint4_linear_57_1247)"/>
<path d="M71.3342 28.168C69.9902 28.168 68.7902 27.888 67.7342 27.328C66.6942 26.752 65.8782 25.968 65.2862 24.976C64.6942 23.984 64.3982 22.856 64.3982 21.592C64.3982 20.312 64.6942 19.184 65.2862 18.208C65.8782 17.216 66.6942 16.44 67.7342 15.88C68.7902 15.32 69.9902 15.04 71.3342 15.04C72.5822 15.04 73.6782 15.296 74.6222 15.808C75.5822 16.304 76.3102 17.04 76.8062 18.016L74.5022 19.36C74.1182 18.752 73.6462 18.304 73.0862 18.016C72.5422 17.728 71.9502 17.584 71.3102 17.584C70.5742 17.584 69.9102 17.744 69.3182 18.064C68.7262 18.384 68.2622 18.848 67.9262 19.456C67.5902 20.048 67.4222 20.76 67.4222 21.592C67.4222 22.424 67.5902 23.144 67.9262 23.752C68.2622 24.344 68.7262 24.8 69.3182 25.12C69.9102 25.44 70.5742 25.6 71.3102 25.6C71.9502 25.6 72.5422 25.456 73.0862 25.168C73.6462 24.88 74.1182 24.432 74.5022 23.824L76.8062 25.168C76.3102 26.128 75.5822 26.872 74.6222 27.4C73.6782 27.912 72.5822 28.168 71.3342 28.168Z" fill="url(#paint5_linear_57_1247)"/>
<path d="M84.3876 28.168C82.9796 28.168 81.8916 27.808 81.1236 27.088C80.3556 26.352 79.9716 25.272 79.9716 23.848V12.352H82.9716V23.776C82.9716 24.384 83.1236 24.856 83.4276 25.192C83.7476 25.528 84.1876 25.696 84.7476 25.696C85.4196 25.696 85.9796 25.52 86.4276 25.168L87.2676 27.304C86.9156 27.592 86.4836 27.808 85.9716 27.952C85.4596 28.096 84.9316 28.168 84.3876 28.168ZM77.8596 17.68V15.28H86.4036V17.68H77.8596Z" fill="url(#paint6_linear_57_1247)"/>
<path d="M89.7676 4C89.7676 1.79086 91.5584 0 93.7676 0H114.767C116.977 0 118.767 1.79086 118.767 4V36C118.767 38.2091 116.977 40 114.767 40H93.7676C91.5584 40 89.7676 38.2091 89.7676 36V4Z" fill="url(#paint7_linear_57_1247)"/>
<path d="M97.2996 27.56C96.2171 27.56 95.2128 27.3867 94.2868 27.04C93.3738 26.68 92.5782 26.1733 91.9 25.52C91.2348 24.8667 90.7131 24.1 90.3349 23.22C89.9567 22.3267 89.7676 21.3467 89.7676 20.28C89.7676 19.2133 89.9567 18.24 90.3349 17.36C90.7131 16.4667 91.2348 15.6933 91.9 15.04C92.5782 14.3867 93.3738 13.8867 94.2868 13.54C95.2128 13.18 96.2171 13 97.2996 13C98.5648 13 99.6929 13.2267 100.684 13.68C101.688 14.1333 102.523 14.7867 103.188 15.64L100.723 17.92C100.28 17.3867 99.7908 16.98 99.256 16.7C98.7343 16.42 98.1474 16.28 97.4953 16.28C96.9344 16.28 96.4193 16.3733 95.9497 16.56C95.4802 16.7467 95.0759 17.02 94.7368 17.38C94.4107 17.7267 94.1499 18.1467 93.9542 18.64C93.7716 19.1333 93.6803 19.68 93.6803 20.28C93.6803 20.88 93.7716 21.4267 93.9542 21.92C94.1499 22.4133 94.4107 22.84 94.7368 23.2C95.0759 23.5467 95.4802 23.8133 95.9497 24C96.4193 24.1867 96.9344 24.28 97.4953 24.28C98.1474 24.28 98.7343 24.14 99.256 23.86C99.7908 23.58 100.28 23.1733 100.723 22.64L103.188 24.92C102.523 25.76 101.688 26.4133 100.684 26.88C99.6929 27.3333 98.5648 27.56 97.2996 27.56Z" fill="white"/>
<path d="M109.083 27.28L103.234 13.28H107.42L112.351 25.4H109.885L114.933 13.28H118.767L112.898 27.28H109.083Z" fill="white"/>
</g>
<defs>
<linearGradient id="paint0_linear_57_1247" x1="5.35235" y1="19.5" x2="82.6165" y2="19.5" gradientUnits="userSpaceOnUse">
<stop stop-color="#2802BD"/>
<stop offset="1" stop-color="#5142FF"/>
</linearGradient>
<linearGradient id="paint1_linear_57_1247" x1="5.35237" y1="19.5" x2="82.6165" y2="19.5" gradientUnits="userSpaceOnUse">
<stop stop-color="#2802BD"/>
<stop offset="1" stop-color="#5142FF"/>
</linearGradient>
<linearGradient id="paint2_linear_57_1247" x1="5.35227" y1="19.5" x2="82.6164" y2="19.5" gradientUnits="userSpaceOnUse">
<stop stop-color="#2802BD"/>
<stop offset="1" stop-color="#5142FF"/>
</linearGradient>
<linearGradient id="paint3_linear_57_1247" x1="5.35244" y1="19.5" x2="82.6166" y2="19.5" gradientUnits="userSpaceOnUse">
<stop stop-color="#2802BD"/>
<stop offset="1" stop-color="#5142FF"/>
</linearGradient>
<linearGradient id="paint4_linear_57_1247" x1="5.35235" y1="19.5" x2="82.6165" y2="19.5" gradientUnits="userSpaceOnUse">
<stop stop-color="#2802BD"/>
<stop offset="1" stop-color="#5142FF"/>
</linearGradient>
<linearGradient id="paint5_linear_57_1247" x1="5.35236" y1="19.5" x2="82.6165" y2="19.5" gradientUnits="userSpaceOnUse">
<stop stop-color="#2802BD"/>
<stop offset="1" stop-color="#5142FF"/>
</linearGradient>
<linearGradient id="paint6_linear_57_1247" x1="5.35233" y1="19.5" x2="82.6165" y2="19.5" gradientUnits="userSpaceOnUse">
<stop stop-color="#2802BD"/>
<stop offset="1" stop-color="#5142FF"/>
</linearGradient>
<linearGradient id="paint7_linear_57_1247" x1="83.5001" y1="-8" x2="124.861" y2="45.8385" gradientUnits="userSpaceOnUse">
<stop stop-color="#2802BD"/>
<stop offset="1" stop-color="#5142FF"/>
</linearGradient>
<clipPath id="clip0_57_1247">
<rect width="119" height="40" fill="white"/>
</clipPath>
</defs>
</svg>
